# Blender 3.4.1
# www.blender.org
mtllib kolo_male_l.mtl
o Wheel21
v 0.771549 0.259389 3.120508
v 0.998513 0.259389 3.120508
v 0.771549 0.346030 3.146790
v 0.998513 0.346030 3.146790
v 0.771549 0.436133 3.155665
v 0.998513 0.436133 3.155665
v 0.998513 0.179540 3.077828
v 0.771549 0.179540 3.077828
v 0.998513 0.109552 3.020391
v 0.771549 0.109552 3.020391
v 0.998513 0.052115 2.950403
v 0.771549 0.052115 2.950402
v 0.998513 0.009435 2.870554
v 0.771549 0.009435 2.870554
v 0.998513 -0.016847 2.783913
v 0.771549 -0.016848 2.783913
v 0.998513 -0.025722 2.693810
v 0.771549 -0.025722 2.693809
v 0.998513 -0.016847 2.603706
v 0.771549 -0.016848 2.603706
v 0.998513 0.009435 2.517065
v 0.771549 0.009435 2.517065
v 0.998513 0.052115 2.437217
v 0.771549 0.052115 2.437216
v 0.998513 0.109552 2.367229
v 0.771549 0.109552 2.367229
v 0.998513 0.179540 2.309791
v 0.771549 0.179540 2.309791
v 0.998513 0.259389 2.267111
v 0.771549 0.259389 2.267111
v 0.998513 0.346030 2.240829
v 0.771549 0.346030 2.240829
v 0.998513 0.436133 2.231954
v 0.771549 0.436133 2.231954
v 0.998513 0.526237 2.240829
v 0.771549 0.526237 2.240829
v 0.998513 0.612878 2.267111
v 0.771549 0.612878 2.267111
v 0.998513 0.692726 2.309791
v 0.771549 0.692726 2.309791
v 0.998513 0.762714 2.367229
v 0.771549 0.762714 2.367229
v 0.998513 0.820152 2.437217
v 0.771549 0.820152 2.437216
v 0.998513 0.862832 2.517065
v 0.771549 0.862832 2.517065
v 0.998513 0.889114 2.603706
v 0.771549 0.889114 2.603706
v 0.998513 0.897989 2.693810
v 0.771549 0.897988 2.693809
v 0.998513 0.889114 2.783913
v 0.771549 0.889114 2.783913
v 0.998513 0.862832 2.870554
v 0.771549 0.862832 2.870554
v 0.998513 0.820152 2.950403
v 0.771549 0.820152 2.950402
v 0.998513 0.762714 3.020391
v 0.771549 0.762714 3.020391
v 0.998513 0.692726 3.077828
v 0.771549 0.692726 3.077828
v 0.998513 0.612878 3.120508
v 0.771549 0.612878 3.120508
v 0.998513 0.526237 3.146790
v 0.771549 0.526237 3.146790
v 0.998513 0.304827 3.010810
v 0.998513 0.369194 3.030335
v 0.998513 0.436133 3.036928
v 0.998513 0.245507 2.979102
v 0.998513 0.193512 2.936431
v 0.998513 0.150840 2.884436
v 0.998513 0.119133 2.825115
v 0.998513 0.099607 2.760749
v 0.998513 0.093014 2.693810
v 0.998513 0.099607 2.626870
v 0.998513 0.119133 2.562504
v 0.998513 0.150840 2.503183
v 0.998513 0.193512 2.451188
v 0.998513 0.245507 2.408517
v 0.998513 0.304827 2.376809
v 0.998513 0.369194 2.357284
v 0.998513 0.436133 2.350691
v 0.998513 0.503073 2.357284
v 0.998513 0.567439 2.376809
v 0.998513 0.626760 2.408517
v 0.998513 0.678755 2.451188
v 0.998513 0.721426 2.503183
v 0.998513 0.753134 2.562504
v 0.998513 0.772659 2.626870
v 0.998513 0.779252 2.693810
v 0.998513 0.772659 2.760749
v 0.998513 0.753134 2.825115
v 0.998513 0.721426 2.884436
v 0.998513 0.678755 2.936431
v 0.998513 0.626760 2.979102
v 0.998513 0.567439 3.010810
v 0.998513 0.503073 3.030335
v 0.998513 0.436133 2.693810
vn -0.0000 -0.0980 0.9952
vn -0.0000 -0.2903 0.9569
vn -0.0000 -0.4714 0.8819
vn -0.0000 -0.6344 0.7730
vn -0.0000 -0.7730 0.6344
vn -0.0000 -0.8819 0.4714
vn -0.0000 -0.9569 0.2903
vn -0.0000 -0.9952 0.0980
vn -0.0000 -0.9952 -0.0980
vn -0.0000 -0.9569 -0.2903
vn -0.0000 -0.8819 -0.4714
vn -0.0000 -0.7730 -0.6344
vn -0.0000 -0.6344 -0.7730
vn -0.0000 -0.4714 -0.8819
vn -0.0000 -0.2903 -0.9569
vn -0.0000 -0.0980 -0.9952
vn -0.0000 0.0980 -0.9952
vn -0.0000 0.2903 -0.9569
vn -0.0000 0.4714 -0.8819
vn -0.0000 0.6344 -0.7730
vn -0.0000 0.7730 -0.6344
vn -0.0000 0.8819 -0.4714
vn -0.0000 0.9569 -0.2903
vn -0.0000 0.9952 -0.0980
vn -0.0000 0.9952 0.0980
vn -0.0000 0.9569 0.2903
vn -0.0000 0.8819 0.4714
vn -0.0000 0.7730 0.6344
vn -0.0000 0.6344 0.7730
vn -0.0000 0.4714 0.8819
vn -1.0000 -0.0000 -0.0000
vn -0.0000 0.2903 0.9569
vn -0.0000 0.0980 0.9952
vn 1.0000 -0.0000 -0.0000
vt 0.933809 0.648317
vt 0.928065 0.211921
vt 0.895542 0.648317
vt 0.603212 0.100130
vt 0.933809 0.633052
vt 0.919504 0.208374
vt 0.895542 0.633052
vt 0.603212 0.092297
vt 0.911799 0.203226
vt 0.933809 0.617786
vt 0.895542 0.617786
vt 0.601684 0.084614
vt 0.895542 0.663583
vt 0.601684 0.107813
vt 0.933809 0.663583
vt 0.937154 0.213729
vt 0.895542 0.678848
vt 0.598686 0.115050
vt 0.933809 0.678848
vt 0.946421 0.213729
vt 0.895542 0.694114
vt 0.594334 0.121563
vt 0.933809 0.694114
vt 0.955510 0.211921
vt 0.895542 0.709379
vt 0.588795 0.127102
vt 0.933809 0.709379
vt 0.964072 0.208374
vt 0.895542 0.724645
vt 0.582282 0.131454
vt 0.933809 0.724645
vt 0.971777 0.203226
vt 0.895542 0.739910
vt 0.575045 0.134452
vt 0.933809 0.739910
vt 0.978330 0.196673
vt 0.895542 0.755175
vt 0.567362 0.135980
vt 0.933809 0.755175
vt 0.983478 0.188968
vt 0.895542 0.770440
vt 0.559529 0.135980
vt 0.933809 0.770440
vt 0.987024 0.180407
vt 0.895542 0.785706
vt 0.551846 0.134452
vt 0.933809 0.785706
vt 0.988832 0.171318
vt 0.895542 0.800971
vt 0.544609 0.131454
vt 0.933809 0.800971
vt 0.988832 0.162051
vt 0.895542 0.816236
vt 0.538095 0.127102
vt 0.933809 0.816236
vt 0.987024 0.152962
vt 0.895542 0.831502
vt 0.532556 0.121563
vt 0.933809 0.831502
vt 0.983478 0.144400
vt 0.895542 0.846767
vt 0.528205 0.115050
vt 0.933809 0.846767
vt 0.978330 0.136695
vt 0.895542 0.862033
vt 0.525207 0.107813
vt 0.933809 0.862033
vt 0.971777 0.130142
vt 0.895542 0.877298
vt 0.523679 0.100130
vt 0.933809 0.877298
vt 0.964072 0.124994
vt 0.895542 0.892563
vt 0.523679 0.092297
vt 0.933809 0.892563
vt 0.955510 0.121447
vt 0.895542 0.907828
vt 0.525207 0.084614
vt 0.933809 0.907828
vt 0.946421 0.119640
vt 0.895542 0.923094
vt 0.528205 0.077377
vt 0.933809 0.923094
vt 0.937154 0.119640
vt 0.895542 0.938359
vt 0.532557 0.070863
vt 0.933809 0.938359
vt 0.928065 0.121447
vt 0.895542 0.953625
vt 0.538095 0.065325
vt 0.933809 0.953625
vt 0.919504 0.124994
vt 0.895542 0.968890
vt 0.544609 0.060973
vt 0.933809 0.968890
vt 0.911799 0.130142
vt 0.895542 0.984156
vt 0.895542 0.495664
vt 0.551846 0.057975
vt 0.933809 0.984156
vt 0.933809 0.495664
vt 0.905246 0.136695
vt 0.895542 0.510929
vt 0.559529 0.056447
vt 0.933809 0.510929
vt 0.900097 0.144400
vt 0.895542 0.526195
vt 0.567362 0.056447
vt 0.933809 0.526195
vt 0.896551 0.152962
vt 0.895542 0.541460
vt 0.575045 0.057975
vt 0.933809 0.541460
vt 0.894743 0.162051
vt 0.895542 0.556726
vt 0.582282 0.060973
vt 0.933809 0.556726
vt 0.894743 0.171317
vt 0.895542 0.571991
vt 0.588795 0.065325
vt 0.933809 0.571991
vt 0.896551 0.180406
vt 0.895542 0.587256
vt 0.594334 0.070863
vt 0.900097 0.188968
vt 0.933809 0.587256
vt 0.895542 0.602521
vt 0.598686 0.077377
vt 0.905246 0.196673
vt 0.933809 0.602521
vt 0.374913 0.951135
vt 0.592988 0.099123
vt 0.393370 0.932677
vt 0.592988 0.093304
vt 0.407871 0.910974
vt 0.591853 0.087596
vt 0.353209 0.965636
vt 0.591853 0.104831
vt 0.329094 0.975625
vt 0.589626 0.110207
vt 0.303493 0.980717
vt 0.586393 0.115046
vt 0.277391 0.980717
vt 0.582278 0.119161
vt 0.251790 0.975625
vt 0.577439 0.122394
vt 0.227675 0.965636
vt 0.572063 0.124621
vt 0.205972 0.951134
vt 0.566355 0.125756
vt 0.187515 0.932677
vt 0.560536 0.125756
vt 0.173013 0.910974
vt 0.554828 0.124621
vt 0.163024 0.886859
vt 0.549451 0.122394
vt 0.157932 0.861258
vt 0.544613 0.119161
vt 0.157932 0.835156
vt 0.540498 0.115046
vt 0.163024 0.809555
vt 0.537264 0.110207
vt 0.173013 0.785440
vt 0.535037 0.104831
vt 0.187515 0.763737
vt 0.533902 0.099123
vt 0.205972 0.745280
vt 0.533902 0.093303
vt 0.227675 0.730778
vt 0.535037 0.087596
vt 0.251790 0.720789
vt 0.537264 0.082219
vt 0.277391 0.715696
vt 0.540498 0.077381
vt 0.303493 0.715696
vt 0.544613 0.073266
vt 0.329094 0.720789
vt 0.549451 0.070032
vt 0.353209 0.730778
vt 0.554828 0.067805
vt 0.374912 0.745280
vt 0.560536 0.066670
vt 0.393369 0.763737
vt 0.566355 0.066670
vt 0.407871 0.785440
vt 0.572063 0.067805
vt 0.417860 0.809555
vt 0.577439 0.070032
vt 0.422953 0.835156
vt 0.582278 0.073266
vt 0.422953 0.861258
vt 0.586393 0.077381
vt 0.417860 0.886859
vt 0.589626 0.082219
vt 0.290442 0.848207
s 0
usemtl kola_texture.001
f 5/10/1 4/7/1 6/11/1
f 3/5/2 2/3/2 4/7/2
f 1/1/3 7/13/3 2/3/3
f 8/15/4 9/17/4 7/13/4
f 10/19/5 11/21/5 9/17/5
f 12/23/6 13/25/6 11/21/6
f 14/27/7 15/29/7 13/25/7
f 15/29/8 18/35/8 17/33/8
f 18/35/9 19/37/9 17/33/9
f 19/37/10 22/43/10 21/41/10
f 22/43/11 23/45/11 21/41/11
f 23/45/12 26/51/12 25/49/12
f 25/49/13 28/55/13 27/53/13
f 27/53/14 30/59/14 29/57/14
f 29/57/15 32/63/15 31/61/15
f 31/61/16 34/67/16 33/65/16
f 33/65/17 36/71/17 35/69/17
f 36/71/18 37/73/18 35/69/18
f 38/75/19 39/77/19 37/73/19
f 40/79/20 41/81/20 39/77/20
f 42/83/21 43/85/21 41/81/21
f 44/87/22 45/89/22 43/85/22
f 46/91/23 47/93/23 45/89/23
f 47/93/24 50/100/24 49/97/24
f 50/101/25 51/103/25 49/98/25
f 52/105/26 53/107/26 51/103/26
f 54/109/27 55/111/27 53/107/27
f 56/113/28 57/115/28 55/111/28
f 58/117/29 59/119/29 57/115/29
f 60/121/30 61/123/30 59/119/30
f 38/76/31 22/44/31 1/2/31
f 62/126/32 63/127/32 61/123/32
f 64/130/33 6/11/33 63/127/33
f 45/90/34 86/174/34 43/86/34
f 63/128/34 95/192/34 61/124/34
f 19/38/34 73/148/34 17/34/34
f 35/70/34 83/168/34 82/166/34
f 53/108/34 92/186/34 91/184/34
f 9/18/34 70/142/34 69/140/34
f 29/58/34 78/158/34 27/54/34
f 45/90/34 88/178/34 87/176/34
f 6/12/34 96/194/34 63/128/34
f 19/38/34 75/152/34 74/150/34
f 39/78/34 83/168/34 37/74/34
f 57/116/34 92/186/34 55/112/34
f 13/26/34 70/142/34 11/22/34
f 31/62/34 79/160/34 29/58/34
f 47/94/34 89/180/34 88/178/34
f 6/12/34 66/134/34 67/136/34
f 2/4/34 66/134/34 4/8/34
f 23/46/34 75/152/34 21/42/34
f 41/82/34 84/170/34 39/78/34
f 59/120/34 93/188/34 57/116/34
f 15/30/34 71/144/34 13/26/34
f 31/62/34 81/164/34 80/162/34
f 51/104/34 89/180/34 49/99/34
f 7/14/34 65/132/34 2/4/34
f 25/50/34 76/154/34 23/46/34
f 41/82/34 86/174/34 85/172/34
f 59/120/34 95/192/34 94/190/34
f 15/30/34 73/148/34 72/146/34
f 35/70/34 81/164/34 33/66/34
f 51/104/34 91/184/34 90/182/34
f 9/18/34 68/138/34 7/14/34
f 25/50/34 78/158/34 77/156/34
f 90/181/34 91/183/34 97/195/34
f 77/155/34 78/157/34 97/195/34
f 91/183/34 92/185/34 97/195/34
f 78/157/34 79/159/34 97/195/34
f 67/135/34 66/133/34 97/195/34
f 92/185/34 93/187/34 97/195/34
f 79/159/34 80/161/34 97/195/34
f 66/133/34 65/131/34 97/195/34
f 93/187/34 94/189/34 97/195/34
f 80/161/34 81/163/34 97/195/34
f 65/131/34 68/137/34 97/195/34
f 94/189/34 95/191/34 97/195/34
f 81/163/34 82/165/34 97/195/34
f 68/137/34 69/139/34 97/195/34
f 95/191/34 96/193/34 97/195/34
f 82/165/34 83/167/34 97/195/34
f 69/139/34 70/141/34 97/195/34
f 96/193/34 67/135/34 97/195/34
f 83/167/34 84/169/34 97/195/34
f 70/141/34 71/143/34 97/195/34
f 84/169/34 85/171/34 97/195/34
f 71/143/34 72/145/34 97/195/34
f 85/171/34 86/173/34 97/195/34
f 72/145/34 73/147/34 97/195/34
f 86/173/34 87/175/34 97/195/34
f 73/147/34 74/149/34 97/195/34
f 87/175/34 88/177/34 97/195/34
f 74/149/34 75/151/34 97/195/34
f 88/177/34 89/179/34 97/195/34
f 75/151/34 76/153/34 97/195/34
f 89/179/34 90/181/34 97/195/34
f 76/153/34 77/155/34 97/195/34
f 5/10/1 3/5/1 4/7/1
f 3/5/2 1/1/2 2/3/2
f 1/1/3 8/15/3 7/13/3
f 8/15/4 10/19/4 9/17/4
f 10/19/5 12/23/5 11/21/5
f 12/23/6 14/27/6 13/25/6
f 14/27/7 16/31/7 15/29/7
f 15/29/8 16/31/8 18/35/8
f 18/35/9 20/39/9 19/37/9
f 19/37/10 20/39/10 22/43/10
f 22/43/11 24/47/11 23/45/11
f 23/45/12 24/47/12 26/51/12
f 25/49/13 26/51/13 28/55/13
f 27/53/14 28/55/14 30/59/14
f 29/57/15 30/59/15 32/63/15
f 31/61/16 32/63/16 34/67/16
f 33/65/17 34/67/17 36/71/17
f 36/71/18 38/75/18 37/73/18
f 38/75/19 40/79/19 39/77/19
f 40/79/20 42/83/20 41/81/20
f 42/83/21 44/87/21 43/85/21
f 44/87/22 46/91/22 45/89/22
f 46/91/23 48/95/23 47/93/23
f 47/93/24 48/95/24 50/100/24
f 50/101/25 52/105/25 51/103/25
f 52/105/26 54/109/26 53/107/26
f 54/109/27 56/113/27 55/111/27
f 56/113/28 58/117/28 57/115/28
f 58/117/29 60/121/29 59/119/29
f 60/121/30 62/126/30 61/123/30
f 1/2/31 3/6/31 5/9/31
f 5/9/31 64/129/31 62/125/31
f 62/125/31 60/122/31 58/118/31
f 58/118/31 56/114/31 54/110/31
f 54/110/31 52/106/31 50/102/31
f 50/102/31 48/96/31 46/92/31
f 46/92/31 44/88/31 42/84/31
f 42/84/31 40/80/31 38/76/31
f 38/76/31 36/72/31 34/68/31
f 34/68/31 32/64/31 30/60/31
f 30/60/31 28/56/31 26/52/31
f 26/52/31 24/48/31 22/44/31
f 22/44/31 20/40/31 18/36/31
f 18/36/31 16/32/31 14/28/31
f 14/28/31 12/24/31 10/20/31
f 10/20/31 8/16/31 1/2/31
f 1/2/31 5/9/31 62/125/31
f 62/125/31 58/118/31 54/110/31
f 54/110/31 50/102/31 46/92/31
f 46/92/31 42/84/31 38/76/31
f 38/76/31 34/68/31 30/60/31
f 30/60/31 26/52/31 22/44/31
f 22/44/31 18/36/31 14/28/31
f 14/28/31 10/20/31 1/2/31
f 1/2/31 62/125/31 54/110/31
f 54/110/31 46/92/31 38/76/31
f 38/76/31 30/60/31 22/44/31
f 22/44/31 14/28/31 1/2/31
f 1/2/31 54/110/31 38/76/31
f 62/126/32 64/130/32 63/127/32
f 64/130/33 5/10/33 6/11/33
f 45/90/34 87/176/34 86/174/34
f 63/128/34 96/194/34 95/192/34
f 19/38/34 74/150/34 73/148/34
f 35/70/34 37/74/34 83/168/34
f 53/108/34 55/112/34 92/186/34
f 9/18/34 11/22/34 70/142/34
f 29/58/34 79/160/34 78/158/34
f 45/90/34 47/94/34 88/178/34
f 6/12/34 67/136/34 96/194/34
f 19/38/34 21/42/34 75/152/34
f 39/78/34 84/170/34 83/168/34
f 57/116/34 93/188/34 92/186/34
f 13/26/34 71/144/34 70/142/34
f 31/62/34 80/162/34 79/160/34
f 47/94/34 49/99/34 89/180/34
f 6/12/34 4/8/34 66/134/34
f 2/4/34 65/132/34 66/134/34
f 23/46/34 76/154/34 75/152/34
f 41/82/34 85/172/34 84/170/34
f 59/120/34 94/190/34 93/188/34
f 15/30/34 72/146/34 71/144/34
f 31/62/34 33/66/34 81/164/34
f 51/104/34 90/182/34 89/180/34
f 7/14/34 68/138/34 65/132/34
f 25/50/34 77/156/34 76/154/34
f 41/82/34 43/86/34 86/174/34
f 59/120/34 61/124/34 95/192/34
f 15/30/34 17/34/34 73/148/34
f 35/70/34 82/166/34 81/164/34
f 51/104/34 53/108/34 91/184/34
f 9/18/34 69/140/34 68/138/34
f 25/50/34 27/54/34 78/158/34
