# Blender 3.4.1
# www.blender.org
mtllib kolo_duze_p.mtl
o Wheel11
v -1.353256 0.560948 0.874792
v -0.698139 0.560948 0.874792
v -1.353256 0.735399 0.927711
v -0.698139 0.735399 0.927711
v -1.353256 0.916822 0.945580
v -0.698139 0.916822 0.945580
v -0.698139 0.400174 0.788857
v -1.353256 0.400174 0.788857
v -0.698139 0.259254 0.673206
v -1.353256 0.259254 0.673206
v -0.698139 0.143603 0.532286
v -1.353256 0.143603 0.532286
v -0.698139 0.057667 0.371511
v -1.353256 0.057667 0.371511
v -0.698139 0.004749 0.197061
v -1.353256 0.004748 0.197061
v -0.698139 -0.013120 0.015638
v -1.353256 -0.013120 0.015638
v -0.698139 0.004749 -0.165785
v -1.353256 0.004748 -0.165785
v -0.698139 0.057668 -0.340235
v -1.353256 0.057667 -0.340236
v -0.698139 0.143603 -0.501010
v -1.353256 0.143603 -0.501010
v -0.698139 0.259254 -0.641930
v -1.353256 0.259254 -0.641930
v -0.698139 0.400174 -0.757581
v -1.353256 0.400174 -0.757581
v -0.698139 0.560948 -0.843517
v -1.353256 0.560948 -0.843517
v -0.698139 0.735399 -0.896435
v -1.353256 0.735399 -0.896436
v -0.698139 0.916822 -0.914304
v -1.353256 0.916822 -0.914304
v -0.698139 1.098245 -0.896435
v -1.353256 1.098244 -0.896436
v -0.698139 1.272695 -0.843517
v -1.353256 1.272695 -0.843516
v -0.698139 1.433470 -0.757581
v -1.353256 1.433470 -0.757581
v -0.698139 1.574390 -0.641930
v -1.353256 1.574390 -0.641930
v -0.698139 1.690041 -0.501010
v -1.353256 1.690041 -0.501010
v -0.698139 1.775976 -0.340235
v -1.353256 1.775976 -0.340236
v -0.698139 1.828895 -0.165785
v -1.353256 1.828895 -0.165785
v -0.698139 1.846764 0.015638
v -1.353256 1.846764 0.015638
v -0.698139 1.828895 0.197061
v -1.353256 1.828895 0.197060
v -0.698139 1.775976 0.371511
v -1.353256 1.775976 0.371511
v -0.698139 1.690041 0.532286
v -1.353256 1.690041 0.532286
v -0.698139 1.574390 0.673206
v -1.353256 1.574390 0.673206
v -0.698139 1.433470 0.788856
v -1.353256 1.433470 0.788856
v -0.698139 1.272695 0.874792
v -1.353256 1.272695 0.874792
v -0.698139 1.098245 0.927711
v -1.353256 1.098244 0.927711
v -1.353256 0.673956 0.601968
v -1.353256 0.793010 0.638083
v -1.353256 0.916822 0.650277
v -1.353256 0.564235 0.543321
v -1.353256 0.468064 0.464396
v -1.353256 0.389139 0.368224
v -1.353256 0.330492 0.258504
v -1.353256 0.294377 0.139450
v -1.353256 0.282183 0.015638
v -1.353256 0.294377 -0.108174
v -1.353256 0.330492 -0.227228
v -1.353256 0.389139 -0.336949
v -1.353256 0.468064 -0.433120
v -1.353256 0.564235 -0.512046
v -1.353256 0.673956 -0.570693
v -1.353256 0.793010 -0.606807
v -1.353256 0.916822 -0.619001
v -1.353256 1.040634 -0.606807
v -1.353256 1.159688 -0.570692
v -1.353256 1.269409 -0.512046
v -1.353256 1.365579 -0.433120
v -1.353256 1.444505 -0.336949
v -1.353256 1.503152 -0.227228
v -1.353256 1.539266 -0.108174
v -1.353256 1.551461 0.015638
v -1.353256 1.539266 0.139450
v -1.353256 1.503152 0.258504
v -1.353256 1.444505 0.368224
v -1.353256 1.365579 0.464396
v -1.353256 1.269408 0.543321
v -1.353256 1.159688 0.601968
v -1.353256 1.040634 0.638082
v -1.353256 0.916822 0.015638
vn -0.0000 -0.0980 0.9952
vn -0.0000 -0.2903 0.9569
vn -0.0000 -0.4714 0.8819
vn -0.0000 -0.6344 0.7730
vn -0.0000 -0.7730 0.6344
vn -0.0000 -0.8819 0.4714
vn -0.0000 -0.9569 0.2903
vn -0.0000 -0.9952 0.0980
vn -0.0000 -0.9952 -0.0980
vn -0.0000 -0.9569 -0.2903
vn -0.0000 -0.8819 -0.4714
vn -0.0000 -0.7730 -0.6344
vn -0.0000 -0.6344 -0.7730
vn -0.0000 -0.4714 -0.8819
vn -0.0000 -0.2903 -0.9569
vn -0.0000 -0.0980 -0.9952
vn -0.0000 0.0980 -0.9952
vn -0.0000 0.2903 -0.9569
vn -0.0000 0.4714 -0.8819
vn -0.0000 0.6344 -0.7730
vn -0.0000 0.7730 -0.6344
vn -0.0000 0.8819 -0.4714
vn -0.0000 0.9569 -0.2903
vn -0.0000 0.9952 -0.0980
vn -0.0000 0.9952 0.0980
vn -0.0000 0.9569 0.2903
vn -0.0000 0.8819 0.4714
vn -0.0000 0.7730 0.6344
vn -0.0000 0.6344 0.7730
vn -0.0000 0.4714 0.8819
vn -1.0000 -0.0000 -0.0000
vn -0.0000 0.2903 0.9569
vn -0.0000 0.0980 0.9952
vn 1.0000 -0.0000 -0.0000
vt 0.743173 0.678345
vt 0.472142 0.189119
vt 0.819707 0.678345
vt 0.972854 0.418166
vt 0.743173 0.708874
vt 0.481175 0.189119
vt 0.819707 0.708874
vt 0.974748 0.408646
vt 0.490035 0.190881
vt 0.743173 0.739407
vt 0.819707 0.739407
vt 0.974748 0.398940
vt 0.819707 0.647812
vt 0.969140 0.427133
vt 0.743173 0.647812
vt 0.463282 0.190881
vt 0.819707 0.617283
vt 0.963747 0.435203
vt 0.743173 0.617283
vt 0.454936 0.194338
vt 0.819707 0.586750
vt 0.956884 0.442067
vt 0.743173 0.586750
vt 0.447425 0.199357
vt 0.819707 0.556221
vt 0.948814 0.447459
vt 0.743173 0.556221
vt 0.441038 0.205744
vt 0.819707 0.525688
vt 0.939846 0.451173
vt 0.743173 0.525688
vt 0.436019 0.213255
vt 0.819707 0.495159
vt 0.930327 0.453067
vt 0.743173 0.495159
vt 0.432562 0.221601
vt 0.819707 0.464630
vt 0.920621 0.453067
vt 0.743173 0.464630
vt 0.430800 0.230461
vt 0.819707 0.434097
vt 0.911101 0.451173
vt 0.743173 0.434097
vt 0.430800 0.239494
vt 0.819707 0.403568
vt 0.902134 0.447459
vt 0.743173 0.403568
vt 0.432562 0.248354
vt 0.819707 0.373035
vt 0.894063 0.442067
vt 0.743173 0.373035
vt 0.436019 0.256700
vt 0.819707 0.342506
vt 0.887200 0.435203
vt 0.743173 0.342506
vt 0.441038 0.264211
vt 0.819707 0.311974
vt 0.881807 0.427133
vt 0.743173 0.311974
vt 0.447425 0.270598
vt 0.819707 0.281445
vt 0.878093 0.418166
vt 0.743173 0.281445
vt 0.454936 0.275617
vt 0.819707 0.250912
vt 0.876199 0.408646
vt 0.743173 0.250912
vt 0.463282 0.279074
vt 0.819707 0.220383
vt 0.876199 0.398940
vt 0.743173 0.220383
vt 0.472142 0.280836
vt 0.819707 0.189850
vt 0.878093 0.389420
vt 0.743173 0.189850
vt 0.481175 0.280836
vt 0.819707 0.159321
vt 0.881807 0.380453
vt 0.743173 0.159321
vt 0.490035 0.279074
vt 0.819707 0.128792
vt 0.887200 0.372382
vt 0.743173 0.128792
vt 0.498381 0.275617
vt 0.819707 0.098259
vt 0.894063 0.365519
vt 0.743173 0.098259
vt 0.505892 0.270598
vt 0.819707 0.067730
vt 0.902134 0.360127
vt 0.743173 0.067730
vt 0.512279 0.264211
vt 0.819707 0.037197
vt 0.911101 0.356412
vt 0.743173 0.037197
vt 0.517298 0.256700
vt 0.819707 0.006668
vt 0.819707 0.983650
vt 0.920621 0.354519
vt 0.743173 0.006668
vt 0.743173 0.983650
vt 0.520755 0.248354
vt 0.819707 0.953121
vt 0.930327 0.354519
vt 0.743173 0.953121
vt 0.522517 0.239494
vt 0.819707 0.922588
vt 0.939846 0.356412
vt 0.743173 0.922588
vt 0.522517 0.230461
vt 0.819707 0.892059
vt 0.948814 0.360127
vt 0.743173 0.892059
vt 0.520755 0.221601
vt 0.819707 0.861526
vt 0.956884 0.365519
vt 0.743173 0.861526
vt 0.517298 0.213255
vt 0.819707 0.830997
vt 0.963747 0.372382
vt 0.743173 0.830997
vt 0.512279 0.205744
vt 0.819707 0.800465
vt 0.969140 0.380453
vt 0.743173 0.800465
vt 0.505892 0.199357
vt 0.819707 0.769936
vt 0.972854 0.389420
vt 0.743173 0.769936
vt 0.498381 0.194338
vt 0.290458 0.067177
vt 0.473576 0.203681
vt 0.314038 0.090757
vt 0.479741 0.203681
vt 0.332565 0.118485
vt 0.485787 0.204884
vt 0.262731 0.048650
vt 0.467530 0.204884
vt 0.231922 0.035889
vt 0.461834 0.207243
vt 0.199216 0.029383
vt 0.456708 0.210668
vt 0.165868 0.029383
vt 0.452349 0.215027
vt 0.133162 0.035889
vt 0.448924 0.220153
vt 0.102353 0.048650
vt 0.446565 0.225849
vt 0.074626 0.067178
vt 0.445362 0.231895
vt 0.051045 0.090757
vt 0.445362 0.238060
vt 0.032518 0.118485
vt 0.446565 0.244106
vt 0.019757 0.149293
vt 0.448924 0.249802
vt 0.013251 0.182000
vt 0.452349 0.254928
vt 0.013251 0.215347
vt 0.456708 0.259287
vt 0.019757 0.248054
vt 0.461834 0.262712
vt 0.032519 0.278863
vt 0.467530 0.265071
vt 0.051046 0.306590
vt 0.473576 0.266274
vt 0.074626 0.330171
vt 0.479741 0.266274
vt 0.102353 0.348697
vt 0.485787 0.265071
vt 0.133162 0.361458
vt 0.491483 0.262712
vt 0.165868 0.367964
vt 0.496609 0.259287
vt 0.199216 0.367964
vt 0.500968 0.254928
vt 0.231922 0.361458
vt 0.504393 0.249802
vt 0.262731 0.348697
vt 0.506752 0.244106
vt 0.290458 0.330170
vt 0.507955 0.238060
vt 0.314039 0.306590
vt 0.507955 0.231895
vt 0.332566 0.278862
vt 0.506752 0.225849
vt 0.345327 0.248054
vt 0.504393 0.220153
vt 0.351833 0.215347
vt 0.500968 0.215027
vt 0.351833 0.182000
vt 0.496609 0.210668
vt 0.345327 0.149293
vt 0.491483 0.207243
vt 0.182542 0.198674
s 0
usemtl kola_texture.002
f 5/10/1 4/7/1 6/11/1
f 3/5/2 2/3/2 4/7/2
f 1/1/3 7/13/3 2/3/3
f 8/15/4 9/17/4 7/13/4
f 10/19/5 11/21/5 9/17/5
f 12/23/6 13/25/6 11/21/6
f 14/27/7 15/29/7 13/25/7
f 16/31/8 17/33/8 15/29/8
f 17/33/9 20/39/9 19/37/9
f 20/39/10 21/41/10 19/37/10
f 22/43/11 23/45/11 21/41/11
f 24/47/12 25/49/12 23/45/12
f 26/51/13 27/53/13 25/49/13
f 27/53/14 30/59/14 29/57/14
f 30/59/15 31/61/15 29/57/15
f 31/61/16 34/67/16 33/65/16
f 34/67/17 35/69/17 33/65/17
f 35/69/18 38/75/18 37/73/18
f 38/75/19 39/77/19 37/73/19
f 40/79/20 41/81/20 39/77/20
f 41/81/21 44/87/21 43/85/21
f 44/87/22 45/89/22 43/85/22
f 46/91/23 47/93/23 45/89/23
f 47/93/24 50/100/24 49/97/24
f 50/101/25 51/103/25 49/98/25
f 52/105/26 53/107/26 51/103/26
f 54/109/27 55/111/27 53/107/27
f 56/113/28 57/115/28 55/111/28
f 58/117/29 59/119/29 57/115/29
f 60/121/30 61/123/30 59/119/30
f 3/6/31 67/136/31 66/134/31
f 62/125/32 63/127/32 61/123/32
f 64/129/33 6/11/33 63/127/33
f 33/66/34 49/99/34 6/12/34
f 20/40/31 75/152/31 22/44/31
f 38/76/31 84/170/31 40/80/31
f 58/118/31 92/186/31 93/188/31
f 12/24/31 71/144/31 14/28/31
f 32/64/31 79/160/31 80/162/31
f 50/102/31 88/178/31 89/180/31
f 22/44/31 76/154/31 24/48/31
f 42/84/31 84/170/31 85/172/31
f 60/122/31 93/188/31 94/190/31
f 14/28/31 72/146/31 16/32/31
f 32/64/31 81/164/31 34/68/31
f 50/102/31 90/182/31 52/106/31
f 1/2/31 68/138/31 8/16/31
f 26/52/31 76/154/31 77/156/31
f 42/84/31 86/174/31 44/88/31
f 62/126/31 94/190/31 95/192/31
f 16/32/31 73/148/31 18/36/31
f 36/72/31 81/164/31 82/166/31
f 52/106/31 91/184/31 54/110/31
f 10/20/31 68/138/31 69/140/31
f 26/52/31 78/158/31 28/56/31
f 46/92/31 86/174/31 87/176/31
f 62/126/31 96/194/31 64/130/31
f 20/40/31 73/148/31 74/150/31
f 38/76/31 82/166/31 83/168/31
f 54/110/31 92/186/31 56/114/31
f 3/6/31 65/132/31 1/2/31
f 12/24/31 69/140/31 70/142/31
f 28/56/31 79/160/31 30/60/31
f 48/96/31 87/176/31 88/178/31
f 64/130/31 67/136/31 5/9/31
f 88/177/31 87/175/31 97/195/31
f 75/151/31 74/149/31 97/195/31
f 89/179/31 88/177/31 97/195/31
f 76/153/31 75/151/31 97/195/31
f 90/181/31 89/179/31 97/195/31
f 77/155/31 76/153/31 97/195/31
f 91/183/31 90/181/31 97/195/31
f 78/157/31 77/155/31 97/195/31
f 92/185/31 91/183/31 97/195/31
f 79/159/31 78/157/31 97/195/31
f 65/131/31 66/133/31 97/195/31
f 93/187/31 92/185/31 97/195/31
f 80/161/31 79/159/31 97/195/31
f 66/133/31 67/135/31 97/195/31
f 94/189/31 93/187/31 97/195/31
f 81/163/31 80/161/31 97/195/31
f 68/137/31 65/131/31 97/195/31
f 95/191/31 94/189/31 97/195/31
f 82/165/31 81/163/31 97/195/31
f 69/139/31 68/137/31 97/195/31
f 96/193/31 95/191/31 97/195/31
f 83/167/31 82/165/31 97/195/31
f 70/141/31 69/139/31 97/195/31
f 67/135/31 96/193/31 97/195/31
f 84/169/31 83/167/31 97/195/31
f 71/143/31 70/141/31 97/195/31
f 85/171/31 84/169/31 97/195/31
f 72/145/31 71/143/31 97/195/31
f 86/173/31 85/171/31 97/195/31
f 73/147/31 72/145/31 97/195/31
f 87/175/31 86/173/31 97/195/31
f 74/149/31 73/147/31 97/195/31
f 5/10/1 3/5/1 4/7/1
f 3/5/2 1/1/2 2/3/2
f 1/1/3 8/15/3 7/13/3
f 8/15/4 10/19/4 9/17/4
f 10/19/5 12/23/5 11/21/5
f 12/23/6 14/27/6 13/25/6
f 14/27/7 16/31/7 15/29/7
f 16/31/8 18/35/8 17/33/8
f 17/33/9 18/35/9 20/39/9
f 20/39/10 22/43/10 21/41/10
f 22/43/11 24/47/11 23/45/11
f 24/47/12 26/51/12 25/49/12
f 26/51/13 28/55/13 27/53/13
f 27/53/14 28/55/14 30/59/14
f 30/59/15 32/63/15 31/61/15
f 31/61/16 32/63/16 34/67/16
f 34/67/17 36/71/17 35/69/17
f 35/69/18 36/71/18 38/75/18
f 38/75/19 40/79/19 39/77/19
f 40/79/20 42/83/20 41/81/20
f 41/81/21 42/83/21 44/87/21
f 44/87/22 46/91/22 45/89/22
f 46/91/23 48/95/23 47/93/23
f 47/93/24 48/95/24 50/100/24
f 50/101/25 52/105/25 51/103/25
f 52/105/26 54/109/26 53/107/26
f 54/109/27 56/113/27 55/111/27
f 56/113/28 58/117/28 57/115/28
f 58/117/29 60/121/29 59/119/29
f 60/121/30 62/125/30 61/123/30
f 3/6/31 5/9/31 67/136/31
f 62/125/32 64/129/32 63/127/32
f 64/129/33 5/10/33 6/11/33
f 6/12/34 4/8/34 2/4/34
f 2/4/34 7/14/34 9/18/34
f 9/18/34 11/22/34 13/26/34
f 13/26/34 15/30/34 17/34/34
f 17/34/34 19/38/34 21/42/34
f 21/42/34 23/46/34 25/50/34
f 25/50/34 27/54/34 29/58/34
f 29/58/34 31/62/34 33/66/34
f 33/66/34 35/70/34 37/74/34
f 37/74/34 39/78/34 41/82/34
f 41/82/34 43/86/34 45/90/34
f 45/90/34 47/94/34 49/99/34
f 49/99/34 51/104/34 53/108/34
f 53/108/34 55/112/34 57/116/34
f 57/116/34 59/120/34 61/124/34
f 61/124/34 63/128/34 6/12/34
f 6/12/34 2/4/34 9/18/34
f 9/18/34 13/26/34 17/34/34
f 17/34/34 21/42/34 25/50/34
f 25/50/34 29/58/34 33/66/34
f 33/66/34 37/74/34 41/82/34
f 41/82/34 45/90/34 49/99/34
f 49/99/34 53/108/34 57/116/34
f 57/116/34 61/124/34 6/12/34
f 6/12/34 9/18/34 17/34/34
f 17/34/34 25/50/34 33/66/34
f 33/66/34 41/82/34 49/99/34
f 49/99/34 57/116/34 6/12/34
f 6/12/34 17/34/34 33/66/34
f 20/40/31 74/150/31 75/152/31
f 38/76/31 83/168/31 84/170/31
f 58/118/31 56/114/31 92/186/31
f 12/24/31 70/142/31 71/144/31
f 32/64/31 30/60/31 79/160/31
f 50/102/31 48/96/31 88/178/31
f 22/44/31 75/152/31 76/154/31
f 42/84/31 40/80/31 84/170/31
f 60/122/31 58/118/31 93/188/31
f 14/28/31 71/144/31 72/146/31
f 32/64/31 80/162/31 81/164/31
f 50/102/31 89/180/31 90/182/31
f 1/2/31 65/132/31 68/138/31
f 26/52/31 24/48/31 76/154/31
f 42/84/31 85/172/31 86/174/31
f 62/126/31 60/122/31 94/190/31
f 16/32/31 72/146/31 73/148/31
f 36/72/31 34/68/31 81/164/31
f 52/106/31 90/182/31 91/184/31
f 10/20/31 8/16/31 68/138/31
f 26/52/31 77/156/31 78/158/31
f 46/92/31 44/88/31 86/174/31
f 62/126/31 95/192/31 96/194/31
f 20/40/31 18/36/31 73/148/31
f 38/76/31 36/72/31 82/166/31
f 54/110/31 91/184/31 92/186/31
f 3/6/31 66/134/31 65/132/31
f 12/24/31 10/20/31 69/140/31
f 28/56/31 78/158/31 79/160/31
f 48/96/31 46/92/31 87/176/31
f 64/130/31 96/194/31 67/136/31
