# Blender 3.4.1
# www.blender.org
mtllib mower_body.mtl
o Cube.053
v 0.164385 1.312950 -0.794299
v 0.142344 1.206479 -0.691428
v 0.464883 0.362756 -1.896788
v 0.437177 0.356293 -1.693917
v 0.088266 1.313052 -0.798590
v 0.087548 1.206553 -0.807053
v 0.383099 0.362865 -1.918702
v 0.355393 0.356402 -1.715831
vn 0.9791 0.1490 0.1385
vn 0.0069 -0.9995 -0.0309
vn -0.9803 -0.1411 -0.1384
vn -0.0562 -0.0787 0.9953
vn 0.1664 0.7689 -0.6173
vn -0.1738 -0.7442 0.6450
vn 0.9674 0.0410 0.2497
vn -0.9505 0.0310 -0.3091
vn -0.7744 0.5152 0.3673
vn 0.0371 0.7669 -0.6407
vn -0.6996 -0.6331 0.3312
vt 0.115462 0.602734
vt 0.440131 0.235691
vt 0.166071 0.602752
vt 0.102464 0.603852
vt 0.441215 0.222685
vt 0.561757 0.014760
vt 0.115462 0.472811
vt 0.165252 0.472828
vt 0.561590 0.121458
vt 0.103487 0.486089
vt 0.559357 0.103688
vt 0.441215 0.235543
vt 0.156553 0.472811
vt 0.172640 0.603785
vt 0.149863 0.479249
vt 0.434714 0.228914
vt 0.568992 0.023287
vt 0.568992 0.121465
vt 0.156553 0.603782
vt 0.172640 0.472811
vt 0.566759 0.103695
vt 0.144682 0.590411
s 0
usemtl material_mower
f 1/1/1 4/10/1 3/7/1
f 3/9/2 8/21/2 7/18/2
f 8/22/3 5/13/3 7/19/3
f 6/16/4 1/2/4 5/12/4
f 7/20/5 1/3/5 3/8/5
f 4/11/6 6/17/6 8/21/6
f 1/1/7 2/4/7 4/10/7
f 3/9/2 4/11/2 8/21/2
f 8/22/8 6/15/8 5/13/8
f 6/16/9 2/5/9 1/2/9
f 7/20/10 5/14/10 1/3/10
f 4/11/11 2/6/11 6/17/11
o Cube.049
v -0.069709 1.313264 -0.784354
v -0.074825 1.206770 -0.713342
v -0.365791 0.363868 -1.919049
v -0.338369 0.357331 -1.716177
v -0.151493 1.313373 -0.794299
v -0.124071 1.206836 -0.691428
v -0.447575 0.363977 -1.897134
v -0.420153 0.357440 -1.694263
vn 0.9803 -0.1419 -0.1371
vn -0.0096 -0.9995 -0.0309
vn -0.9797 0.1462 0.1371
vn -0.0997 0.5553 0.8256
vn 0.0803 0.7541 -0.6519
vn 0.2568 -0.7736 0.5794
vn 0.9803 -0.1399 -0.1391
vn -0.9623 0.0147 0.2717
vn 0.2902 0.7023 0.6500
vn -0.1645 0.7689 -0.6178
vn 0.1631 -0.7736 0.6124
vt 0.434714 0.202676
vt 0.222939 0.248413
vt 0.135983 0.604720
vt 0.124857 0.603443
vt 0.437043 0.213567
vt 0.070131 0.592606
vt 0.135983 0.472811
vt 0.070131 0.486607
vt 0.222939 0.380319
vt 0.124161 0.486260
vt 0.068328 0.504423
vt 0.080725 0.602627
vt 0.441588 0.200870
vt 0.216091 0.250458
vt 0.065498 0.593465
vt 0.093765 0.603962
vt 0.441588 0.213986
vt 0.081935 0.472811
vt 0.062731 0.486803
vt 0.215591 0.380281
vt 0.093765 0.486194
vt 0.060928 0.504619
s 0
usemtl material_mower
f 9/25/12 12/32/12 11/29/12
f 12/33/13 15/41/13 11/30/13
f 16/43/14 13/34/14 15/40/14
f 13/35/15 10/27/15 9/23/15
f 11/31/16 13/36/16 9/24/16
f 16/44/17 10/28/17 14/37/17
f 9/25/18 10/26/18 12/32/18
f 12/33/13 16/44/13 15/41/13
f 16/43/19 14/38/19 13/34/19
f 13/35/20 14/39/20 10/27/20
f 11/31/21 15/42/21 13/36/21
f 16/44/22 12/33/22 10/28/22
o Cube.047
v -0.069582 1.319122 -0.799724
v -0.069628 1.284473 -0.653150
v -0.070150 0.394193 -1.100135
v -0.070196 0.359544 -0.953560
v -0.154251 1.319235 -0.799724
v -0.154297 1.284587 -0.653150
v -0.154819 0.394306 -1.100135
v -0.154865 0.359658 -0.953560
vn 1.0000 -0.0007 0.0002
vn -0.0013 -0.9732 -0.2301
vn -1.0000 0.0007 -0.0002
vn 0.0013 0.9732 0.2300
vn 0.0004 0.3089 -0.9511
vn -0.0004 -0.3089 0.9511
vt 0.026688 0.565790
vt 0.418613 0.244603
vt 0.347863 0.208247
vt 0.013565 0.566868
vt 0.418613 0.257771
vt 0.577691 0.109561
vt 0.026688 0.480770
vt 0.418613 0.214038
vt 0.347863 0.123226
vt 0.013565 0.481847
vt 0.418613 0.200870
vt 0.577691 0.194582
vt 0.426015 0.244603
vt 0.052229 0.487685
vt 0.355265 0.208252
vt 0.585093 0.109556
vt 0.039106 0.486607
vt 0.426015 0.257771
vt 0.052229 0.572705
vt 0.426015 0.214038
vt 0.355265 0.123232
vt 0.426015 0.200870
vt 0.039106 0.571628
vt 0.585093 0.194577
s 0
usemtl material_mower
f 17/45/23 20/54/23 19/51/23
f 20/55/24 23/64/24 19/52/24
f 24/67/25 21/58/25 23/63/25
f 22/62/26 17/46/26 21/57/26
f 23/65/27 17/47/27 19/53/27
f 24/68/28 18/50/28 22/60/28
f 17/45/23 18/48/23 20/54/23
f 20/55/24 24/66/24 23/64/24
f 24/67/25 22/61/25 21/58/25
f 22/62/26 18/49/26 17/46/26
f 23/65/27 21/59/27 17/47/27
f 24/68/28 20/56/28 18/50/28
o Cube.046
v 0.167943 1.318804 -0.799724
v 0.167897 1.284156 -0.653150
v 0.167375 0.393875 -1.100135
v 0.167329 0.359226 -0.953560
v 0.083274 1.318917 -0.799724
v 0.083228 1.284269 -0.653150
v 0.082706 0.393989 -1.100135
v 0.082660 0.359340 -0.953560
vn 1.0000 -0.0007 0.0002
vn -0.0013 -0.9732 -0.2301
vn -1.0000 0.0007 -0.0002
vn 0.0013 0.9732 0.2300
vn 0.0004 0.3089 -0.9511
vn -0.0004 -0.3089 0.9511
vt 0.599513 0.015837
vt 0.222993 0.445060
vt 0.599513 0.194577
vt 0.612637 0.014760
vt 0.222993 0.431892
vt 0.355319 0.110544
vt 0.599513 0.100857
vt 0.418613 0.235904
vt 0.599513 0.109556
vt 0.612637 0.099780
vt 0.418613 0.222737
vt 0.355319 0.025524
vt 0.215591 0.445060
vt 0.577691 0.099780
vt 0.606916 0.194582
vt 0.347917 0.110549
vt 0.590814 0.100857
vt 0.215591 0.431892
vt 0.577691 0.014760
vt 0.426015 0.235904
vt 0.606916 0.109561
vt 0.426015 0.222737
vt 0.590814 0.015837
vt 0.347917 0.025529
s 0
usemtl material_mower
f 25/69/29 28/78/29 27/75/29
f 28/79/30 31/88/30 27/76/30
f 32/91/31 29/82/31 31/87/31
f 30/86/32 25/70/32 29/81/32
f 31/89/33 25/71/33 27/77/33
f 32/92/34 26/74/34 30/84/34
f 25/69/29 26/72/29 28/78/29
f 28/79/30 32/90/30 31/88/30
f 32/91/31 30/85/31 29/82/31
f 30/86/32 26/73/32 25/70/32
f 31/89/33 29/83/33 25/71/33
f 32/92/34 28/80/34 26/74/34
o Cube.055
v 1.229002 0.397265 -3.184890
v 1.228800 0.346651 -3.184890
v -1.237418 0.400564 -3.184890
v -1.237620 0.349950 -3.184890
v 1.229002 0.397265 -0.941208
v 1.228800 0.346651 -0.941208
v -1.237418 0.400564 -0.941208
v -1.237620 0.349950 -0.941208
v 1.229002 0.197266 -3.484890
v 1.228666 0.146652 -3.484890
v -1.237418 0.200564 -3.484890
v -1.237754 0.149951 -3.484890
v -1.210943 0.149915 -3.457238
v 1.201854 0.146687 -3.457240
v 1.228533 0.146652 -0.941208
v -1.237887 0.149951 -0.941208
v 1.201722 0.146688 -0.968860
v -1.211075 0.149915 -0.968858
v -1.210943 0.349915 -3.157238
v 1.201854 0.346687 -3.157239
v 1.201722 0.346687 -0.968860
v -1.211075 0.349915 -0.968858
vn 0.0011 0.8320 -0.5547
vn -1.0000 0.0040 -0.0000
vn -0.0000 -0.0000 1.0000
vn 1.0000 -0.0040 -0.0000
vn 0.0013 1.0000 -0.0000
vn 1.0000 -0.0007 0.0001
vn -0.0000 -0.0000 -1.0000
vn -1.0000 0.0060 -0.0026
vn -1.0000 0.0053 -0.0033
vn -0.0011 -0.8320 0.5547
vn 1.0000 -0.0026 0.0020
vn 1.0000 -0.0034 0.0012
vn 1.0000 -0.0026 0.0019
vn -0.0013 -1.0000 -0.0000
vn -1.0000 0.0013 -0.0000
vn 1.0000 -0.0000 0.0001
vn -1.0000 0.0001 -0.0001
vn 1.0000 -0.0013 -0.0000
vn -1.0000 0.0026 -0.0021
vn -1.0000 0.0027 -0.0020
vn -1.0000 0.0047 -0.0013
vn 1.0000 -0.0073 0.0026
vn 1.0000 -0.0052 0.0033
vn 1.0000 -0.0052 0.0034
vn -1.0000 0.0007 -0.0001
vn 1.0000 -0.0001 0.0001
vn -0.0011 -0.8321 0.5547
vn -1.0000 -0.0000 -0.0001
vt 0.218987 0.389018
vt 0.658922 0.223279
vt 0.398067 0.058494
vt 0.761101 0.026289
vt 0.393642 0.058494
vt 0.467119 0.257673
vt 0.222383 0.391855
vt 0.658922 0.007651
vt 0.761101 0.408097
vt 0.475818 0.283889
vt 0.467119 0.473300
vt 0.480243 0.283889
vt 0.482135 0.019250
vt 0.398067 0.254648
vt 0.413773 0.026288
vt 0.477710 0.019262
vt 0.393642 0.254648
vt 0.475818 0.480043
vt 0.482135 0.234877
vt 0.413773 0.408097
vt 0.480243 0.480043
vt 0.477710 0.234889
vt 0.327456 0.240074
vt 0.632694 0.223302
vt 0.215591 0.420356
vt 0.376157 0.032267
vt 0.440892 0.257661
vt 0.323031 0.240050
vt 0.218987 0.423193
vt 0.010738 0.239714
vt 0.632694 0.007675
vt 0.327456 0.024447
vt 0.493303 0.257661
vt 0.323031 0.024423
vt 0.440892 0.473288
vt 0.497728 0.257661
vt 0.226365 0.239703
vt 0.224021 0.237285
vt 0.508319 0.236797
vt 0.243818 0.228550
vt 0.534503 0.019250
vt 0.013082 0.237297
vt 0.243818 0.017611
vt 0.376157 0.254648
vt 0.460225 0.019262
vt 0.010738 0.017333
vt 0.226365 0.017321
vt 0.460225 0.234889
vt 0.497728 0.480043
vt 0.278745 0.228573
vt 0.013082 0.019750
vt 0.534503 0.236797
vt 0.224021 0.019739
vt 0.508319 0.019250
vt 0.278745 0.017634
vt 0.270045 0.228573
vt 0.490834 0.210569
vt 0.313554 0.602439
vt 0.270045 0.017634
vt 0.517018 0.045478
vt 0.313554 0.135904
vt 0.517018 0.236797
vt 0.296230 0.228550
vt 0.736696 0.135930
vt 0.490834 0.019250
vt 0.736696 0.602465
vt 0.296230 0.017611
s 0
usemtl material_mower
f 33/94/35 43/123/35 35/100/35
f 36/104/36 39/110/36 35/102/36
f 39/111/37 38/108/37 37/105/37
f 38/109/38 33/95/38 37/106/38
f 39/112/39 33/96/39 35/101/39
f 34/97/40 47/136/40 42/118/40
f 42/120/41 43/124/41 41/115/41
f 36/104/42 43/125/43 44/128/43
f 34/98/44 44/127/44 42/119/44
f 34/99/45 41/117/46 33/93/47
f 47/138/48 50/145/48 49/143/48
f 40/114/37 47/137/37 38/108/37
f 36/104/49 48/141/49 40/113/49
f 44/129/48 46/134/48 45/130/48
f 47/138/48 46/134/48 42/122/48
f 44/129/48 50/145/48 48/139/48
f 50/146/50 51/149/50 54/157/50
f 45/132/44 52/151/44 51/148/44
f 49/144/51 52/152/51 46/133/51
f 50/147/41 53/155/41 49/142/41
f 51/150/48 53/156/48 54/158/48
f 33/94/35 41/116/35 43/123/35
f 36/104/36 40/113/36 39/110/36
f 39/111/37 40/114/37 38/108/37
f 38/109/38 34/97/38 33/95/38
f 39/112/39 37/107/39 33/96/39
f 34/97/52 38/109/52 47/136/52
f 42/120/41 44/126/41 43/124/41
f 36/104/53 35/102/54 43/125/55
f 34/98/44 36/103/44 44/127/44
f 34/99/56 42/121/57 41/117/58
f 47/138/48 48/139/48 50/145/48
f 40/114/37 48/140/37 47/137/37
f 36/104/59 44/128/59 48/141/59
f 44/129/48 42/122/48 46/134/48
f 47/138/48 49/143/48 46/134/48
f 44/129/48 45/130/48 50/145/48
f 50/146/60 45/131/60 51/149/60
f 45/132/61 46/135/61 52/151/61
f 49/144/62 53/154/62 52/152/62
f 50/147/41 54/159/41 53/155/41
f 51/150/48 52/153/48 53/156/48
