# Blender 3.4.1
# www.blender.org
mtllib szopa.mtl
o wall1
v 2.958042 -0.135347 4.233119
v 2.958042 3.864653 4.233119
v 2.958042 -0.135347 -5.766881
v 2.958042 3.864653 -5.766881
v 3.058042 -0.135347 4.233119
v 3.058042 3.864653 4.233119
v 3.058042 -0.135347 -5.766881
v 3.058042 3.864653 -5.766881
vn -1.0000 -0.0000 -0.0000
vn -0.0000 -0.0000 -1.0000
vn 1.0000 -0.0000 -0.0000
vn -0.0000 -0.0000 1.0000
vn -0.0000 -1.0000 -0.0000
vn -0.0000 1.0000 -0.0000
vt 0.375000 0.000000
vt 0.375000 1.000000
vt 0.125000 0.750000
vt 0.625000 0.000000
vt 0.625000 1.000000
vt 0.875000 0.750000
vt 0.125000 0.500000
vt 0.375000 0.250000
vt 0.625000 0.250000
vt 0.875000 0.500000
vt 0.375000 0.750000
vt 0.625000 0.750000
vt 0.375000 0.500000
vt 0.625000 0.500000
s 0
f 2/4/1 3/8/1 1/1/1
f 4/9/2 7/13/2 3/8/2
f 8/14/3 5/11/3 7/13/3
f 6/12/4 1/2/4 5/11/4
f 7/13/5 1/3/5 3/7/5
f 4/10/6 6/12/6 8/14/6
f 2/4/1 4/9/1 3/8/1
f 4/9/2 8/14/2 7/13/2
f 8/14/3 6/12/3 5/11/3
f 6/12/4 2/5/4 1/2/4
f 7/13/5 5/11/5 1/3/5
f 4/10/6 2/6/6 6/12/6
o wall2
v -7.041959 -0.135347 4.233119
v -7.041959 3.864653 4.233119
v -7.041959 -0.135347 -5.766881
v -7.041959 3.864653 -5.766881
v -6.941958 -0.135347 4.233119
v -6.941958 3.864653 4.233119
v -6.941958 -0.135347 -5.766881
v -6.941958 3.864653 -5.766881
vn -1.0000 -0.0000 -0.0000
vn -0.0000 -0.0000 -1.0000
vn 1.0000 -0.0000 -0.0000
vn -0.0000 -0.0000 1.0000
vn -0.0000 -1.0000 -0.0000
vn -0.0000 1.0000 -0.0000
vt 0.375000 0.000000
vt 0.375000 1.000000
vt 0.125000 0.750000
vt 0.625000 0.000000
vt 0.625000 1.000000
vt 0.875000 0.750000
vt 0.125000 0.500000
vt 0.375000 0.250000
vt 0.625000 0.250000
vt 0.875000 0.500000
vt 0.375000 0.750000
vt 0.625000 0.750000
vt 0.375000 0.500000
vt 0.625000 0.500000
s 0
f 10/18/7 11/22/7 9/15/7
f 12/23/8 15/27/8 11/22/8
f 16/28/9 13/25/9 15/27/9
f 14/26/10 9/16/10 13/25/10
f 15/27/11 9/17/11 11/21/11
f 12/24/12 14/26/12 16/28/12
f 10/18/7 12/23/7 11/22/7
f 12/23/8 16/28/8 15/27/8
f 16/28/9 14/26/9 13/25/9
f 14/26/10 10/19/10 9/16/10
f 15/27/11 13/25/11 9/17/11
f 12/24/12 10/20/12 14/26/12
o wall3
v 3.008041 -0.135347 -5.716881
v 3.008041 3.864653 -5.716881
v -6.991959 -0.135347 -5.716880
v -6.991959 3.864653 -5.716880
v 3.008041 -0.135347 -5.816881
v 3.008041 3.864653 -5.816881
v -6.991959 -0.135347 -5.816880
v -6.991959 3.864653 -5.816880
vn -0.0000 -0.0000 1.0000
vn -1.0000 -0.0000 -0.0000
vn -0.0000 -0.0000 -1.0000
vn 1.0000 -0.0000 -0.0000
vn -0.0000 -1.0000 -0.0000
vn -0.0000 1.0000 -0.0000
vt 0.375000 0.000000
vt 0.375000 1.000000
vt 0.125000 0.750000
vt 0.625000 0.000000
vt 0.625000 1.000000
vt 0.875000 0.750000
vt 0.125000 0.500000
vt 0.375000 0.250000
vt 0.625000 0.250000
vt 0.875000 0.500000
vt 0.375000 0.750000
vt 0.625000 0.750000
vt 0.375000 0.500000
vt 0.625000 0.500000
s 0
f 18/32/13 19/36/13 17/29/13
f 20/37/14 23/41/14 19/36/14
f 24/42/15 21/39/15 23/41/15
f 22/40/16 17/30/16 21/39/16
f 23/41/17 17/31/17 19/35/17
f 20/38/18 22/40/18 24/42/18
f 18/32/13 20/37/13 19/36/13
f 20/37/14 24/42/14 23/41/14
f 24/42/15 22/40/15 21/39/15
f 22/40/16 18/33/16 17/30/16
f 23/41/17 21/39/17 17/31/17
f 20/38/18 18/34/18 22/40/18
o roof1
v -7.810719 3.736492 4.733119
v -2.015163 5.289406 4.733119
v -7.810719 3.736492 -6.266881
v -2.015163 5.289406 -6.266881
v -7.784837 3.639899 4.733119
v -1.989282 5.192814 4.733119
v -7.784837 3.639899 -6.266881
v -1.989282 5.192814 -6.266881
vn -0.2588 0.9659 -0.0000
vn -0.0000 -0.0000 -1.0000
vn 0.2588 -0.9659 -0.0000
vn -0.0000 -0.0000 1.0000
vn -0.9659 -0.2588 -0.0000
vn 0.9659 0.2588 -0.0000
vt 0.375000 0.000000
vt 0.375000 1.000000
vt 0.125000 0.750000
vt 0.625000 0.000000
vt 0.625000 1.000000
vt 0.875000 0.750000
vt 0.125000 0.500000
vt 0.375000 0.250000
vt 0.625000 0.250000
vt 0.875000 0.500000
vt 0.375000 0.750000
vt 0.625000 0.750000
vt 0.375000 0.500000
vt 0.625000 0.500000
s 0
f 26/46/19 27/50/19 25/43/19
f 28/51/20 31/55/20 27/50/20
f 32/56/21 29/53/21 31/55/21
f 30/54/22 25/44/22 29/53/22
f 31/55/23 25/45/23 27/49/23
f 28/52/24 30/54/24 32/56/24
f 26/46/19 28/51/19 27/50/19
f 28/51/20 32/56/20 31/55/20
f 32/56/21 30/54/21 29/53/21
f 30/54/22 26/47/22 25/44/22
f 31/55/23 29/53/23 25/45/23
f 28/52/24 26/48/24 30/54/24
o roof2
v 3.763588 3.736492 -6.266881
v -2.031967 5.289406 -6.266880
v 3.763589 3.736492 4.733119
v -2.031966 5.289406 4.733120
v 3.737707 3.639899 -6.266881
v -2.057848 5.192814 -6.266880
v 3.737708 3.639899 4.733119
v -2.057847 5.192814 4.733120
vn 0.2588 0.9659 -0.0000
vn -0.0000 -0.0000 1.0000
vn -0.2588 -0.9659 -0.0000
vn -0.0000 -0.0000 -1.0000
vn 0.9659 -0.2588 -0.0000
vn -0.9659 0.2588 -0.0000
vt 0.375000 0.000000
vt 0.375000 1.000000
vt 0.125000 0.750000
vt 0.625000 0.000000
vt 0.625000 1.000000
vt 0.875000 0.750000
vt 0.125000 0.500000
vt 0.375000 0.250000
vt 0.625000 0.250000
vt 0.875000 0.500000
vt 0.375000 0.750000
vt 0.625000 0.750000
vt 0.375000 0.500000
vt 0.625000 0.500000
s 0
f 34/60/25 35/64/25 33/57/25
f 36/65/26 39/69/26 35/64/26
f 40/70/27 37/67/27 39/69/27
f 38/68/28 33/58/28 37/67/28
f 39/69/29 33/59/29 35/63/29
f 36/66/30 38/68/30 40/70/30
f 34/60/25 36/65/25 35/64/25
f 36/65/26 40/70/26 39/69/26
f 40/70/27 38/68/27 37/67/27
f 38/68/28 34/61/28 33/58/28
f 39/69/29 37/67/29 33/59/29
f 36/66/30 34/62/30 38/68/30
o triangle1
v 3.008041 3.864653 -5.716881
v -1.991959 5.264653 -5.716881
v -6.991959 3.864653 -5.716880
v -1.991959 5.264653 -5.716880
v 3.008041 3.864653 -5.816881
v -1.991959 5.264653 -5.816881
v -6.991959 3.864653 -5.816880
v -1.991959 5.264653 -5.816880
vn -0.0000 -0.0000 1.0000
vn -0.2696 0.9630 -0.0000
vn -0.0000 -0.0000 -1.0000
vn 0.2696 0.9630 -0.0000
vn -0.0000 -1.0000 -0.0000
vn -0.0000 1.0000 -0.0000
vn 0.2626 0.9649 -0.0000
vn -0.2626 0.9649 -0.0000
vt 0.375000 1.000000
vt 0.375000 0.000000
vt 0.125000 0.750000
vt 0.625000 0.000000
vt 0.625000 1.000000
vt 0.875000 0.750000
vt 0.125000 0.500000
vt 0.375000 0.250000
vt 0.625000 0.250000
vt 0.875000 0.500000
vt 0.375000 0.750000
vt 0.625000 0.750000
vt 0.375000 0.500000
vt 0.625000 0.500000
s 0
f 41/72/31 44/79/31 43/78/31
f 43/78/32 48/84/32 47/83/32
f 47/83/33 46/82/33 45/81/33
f 45/81/34 42/75/34 41/71/34
f 47/83/35 41/73/35 43/77/35
f 48/84/36 42/76/36 46/82/36
f 41/72/37 42/74/37 44/79/37
f 43/78/32 44/79/32 48/84/32
f 47/83/38 48/84/38 46/82/38
f 45/81/34 46/82/34 42/75/34
f 47/83/35 45/81/35 41/73/35
f 48/84/36 44/80/36 42/76/36
o triangle2
v 3.008041 3.864653 4.283119
v -1.991959 5.264653 4.283119
v -6.991959 3.864653 4.283120
v -1.991959 5.264653 4.283120
v 3.008041 3.864653 4.183119
v -1.991959 5.264653 4.183119
v -6.991959 3.864653 4.183120
v -1.991959 5.264653 4.183120
vn -0.0000 -0.0000 1.0000
vn -0.2696 0.9630 -0.0000
vn -0.0000 -0.0000 -1.0000
vn 0.2696 0.9630 -0.0000
vn -0.0000 -1.0000 -0.0000
vn -0.0000 1.0000 -0.0000
vn 0.2626 0.9649 -0.0000
vn -0.2626 0.9649 -0.0000
vt 0.375000 1.000000
vt 0.375000 0.000000
vt 0.125000 0.750000
vt 0.625000 0.000000
vt 0.625000 1.000000
vt 0.875000 0.750000
vt 0.125000 0.500000
vt 0.375000 0.250000
vt 0.625000 0.250000
vt 0.875000 0.500000
vt 0.375000 0.750000
vt 0.625000 0.750000
vt 0.375000 0.500000
vt 0.625000 0.500000
s 0
f 49/86/39 52/93/39 51/92/39
f 51/92/40 56/98/40 55/97/40
f 55/97/41 54/96/41 53/95/41
f 53/95/42 50/89/42 49/85/42
f 55/97/43 49/87/43 51/91/43
f 56/98/44 50/90/44 54/96/44
f 49/86/45 50/88/45 52/93/45
f 51/92/40 52/93/40 56/98/40
f 55/97/46 56/98/46 54/96/46
f 53/95/42 54/96/42 50/89/42
f 55/97/43 53/95/43 49/87/43
f 56/98/44 52/94/44 50/90/44
